<svg width="300" height="124" viewBox="0 0 300 124" fill="none" xmlns="http://www.w3.org/2000/svg">
<g clip-path="url(#clip0)">
<path d="M52.1628 50.2888C51.0398 50.0572 49.9499 49.6271 49.0251 48.9654C48.1663 48.3368 47.5058 47.5097 46.8782 46.6826C45.6231 45.0284 44.7313 42.878 44.4341 40.8268C43.7075 35.4342 46.4819 30.2069 49.4545 25.9061C55.4327 17.2051 63.6898 9.72814 73.07 4.86484C75.5141 3.57458 78.1564 2.5159 80.8978 2.11889C82.0868 1.95347 83.408 1.85422 84.531 2.35048C85.3237 2.68132 85.9512 3.27682 86.3806 4.07083C87.3384 5.79118 87.3714 8.00779 87.1402 9.92665C86.81 12.6395 86.0833 15.3193 85.3237 17.8998C83.6392 23.4579 81.2611 28.8174 78.6188 33.9785C75.8774 39.305 72.9379 44.4991 69.8992 49.6602C63.7559 60.1477 57.2162 70.3706 50.2471 80.3287C44.0708 89.1952 37.6302 98.0947 29.6702 105.439C27.6885 107.259 25.6077 108.979 23.4278 110.567C21.38 112.056 19.2332 113.545 16.9542 114.703C14.8073 115.794 12.5283 116.655 10.1172 116.886C8.00339 117.085 5.98864 116.688 4.43629 115.199C3.01605 113.843 2.55365 111.858 2.58668 109.939C2.61971 107.656 3.14817 105.505 4.03994 103.388C5.95561 98.8225 8.76305 94.5547 11.8017 90.6839C13.3871 88.6658 15.1046 86.747 16.756 84.762C17.6148 83.7364 18.6717 82.8431 19.6625 81.9498C20.6204 81.0566 21.6112 80.1964 22.6351 79.3693C26.6646 76.0279 31.0574 73.0834 35.6154 70.4698C40.6358 67.5915 45.8873 65.1433 51.271 63.026C56.6877 60.8755 62.2035 59.1883 67.7854 57.501C70.5268 56.6739 73.3012 55.913 76.0756 55.2844C76.3398 55.2182 76.1747 54.9205 75.9435 54.9866C72.9379 55.6814 69.9653 56.3431 66.9597 57.104C64.0862 57.8318 61.2787 58.7251 58.4713 59.6845C52.7573 61.6034 47.1424 63.82 41.7588 66.4998C36.7384 69.0141 31.8832 71.8593 27.2922 75.1346C25.0462 76.7557 22.8663 78.443 20.7525 80.2295C19.7616 81.0897 18.7708 81.9499 17.8129 82.8431C16.789 83.7695 15.7651 84.6958 14.7413 85.6221C12.7595 87.3756 11.042 89.4268 9.35757 91.478C7.64008 93.5622 6.02167 95.7458 4.5684 98.0616C3.21423 100.146 1.95913 102.296 1.10039 104.645C0.340725 106.796 -0.253792 109.145 0.109524 111.461C0.47284 113.843 1.6949 115.96 3.70966 117.316C5.85652 118.805 8.49882 119.202 11.042 118.904C16.3927 118.342 21.2149 115.166 25.4095 112.056C34.3933 105.439 41.5276 96.7052 48.0672 87.7064C55.4327 77.5828 62.3357 67.1284 68.8093 56.4092C72.0461 51.0497 75.1838 45.624 78.1894 40.1321C81.129 34.7725 83.9034 29.2806 86.0833 23.5571C87.1402 20.7781 88.0651 17.8998 88.7587 15.0215C89.3532 12.5733 89.9147 9.99281 89.7495 7.47845C89.6174 5.26184 88.8247 2.97907 87.0412 1.55647C84.6631 -0.296217 81.5254 -0.23005 78.7179 0.398541C75.7453 1.06021 73.0039 2.3174 70.3616 3.77308C67.8845 5.12951 65.5064 6.68444 63.2274 8.33863C58.7355 11.6139 54.64 15.4516 51.0729 19.6863C47.5058 23.9541 43.9387 28.8505 42.4854 34.3093C41.7918 36.9229 41.6597 39.6358 42.3863 42.2494C43.0138 44.466 44.302 46.7819 46.1846 48.1383C47.9682 49.4286 49.9169 50.4211 52.1628 50.6196C52.3279 50.5534 52.361 50.3218 52.1628 50.2888Z" fill="#1A1A1A"/>
<path d="M77.7267 52.9686C76.2073 54.1596 75.0513 55.7807 74.4568 57.6334C74.1926 58.4605 74.0605 59.4199 74.4898 60.247C75.1174 61.4711 76.4716 61.8019 77.7267 61.7357C79.4772 61.6696 81.1947 60.5447 82.0204 58.9898C82.9122 57.3356 82.747 55.4168 81.591 53.928C80.8974 53.0347 79.8735 52.1746 78.7505 52.0091C77.9579 51.8768 77 52.0091 76.2734 52.3731C75.877 52.5716 76.1743 53.0017 76.5376 53.0347C76.7688 53.0678 77.0661 53.0678 77.2643 53.1671C77.3303 53.2002 77.3964 53.2332 77.4294 53.2663C77.5615 53.3325 77.3303 53.2002 77.4624 53.2663C77.5285 53.2994 77.6276 53.3656 77.6936 53.4317C77.7267 53.4648 77.9909 53.6633 77.8257 53.4979C78.123 53.7295 78.4203 53.8949 78.7505 54.0934C78.9157 54.1927 78.6184 53.9611 78.7505 54.0934C78.8166 54.1265 78.8827 54.1927 78.9157 54.2257C79.0478 54.325 79.1799 54.4243 79.279 54.5566C79.1469 54.3912 79.3781 54.6889 79.4111 54.7551C79.4772 54.8213 79.5102 54.8874 79.5763 54.9867C79.5763 55.0198 79.7084 55.1852 79.6423 55.0859C79.5763 54.9867 79.6754 55.1852 79.7084 55.1852C79.7414 55.2513 79.7744 55.3175 79.8075 55.3837C79.8735 55.5491 79.9396 55.6814 79.9726 55.8468C79.9396 55.7145 79.9726 55.8799 79.9726 55.913C79.9726 55.9792 80.0056 56.0453 80.0056 56.1446C80.0387 56.31 80.0387 56.4754 80.0387 56.6409C80.0387 56.8394 79.9726 57.1371 79.8735 57.4349C79.5102 58.5266 78.6184 59.3537 77.5615 59.6515C77.7597 59.5853 77.5285 59.6515 77.4624 59.6515C77.3964 59.6515 77.3303 59.6846 77.2312 59.6846C77.1652 59.6846 77.0991 59.6846 77 59.7176C76.8019 59.7176 77.1982 59.7176 77 59.7176C76.934 59.7176 76.8349 59.7176 76.7688 59.7176C76.7358 59.7176 76.7358 59.7176 76.7028 59.7176C76.8019 59.7507 76.8349 59.7507 76.7358 59.7176C76.7028 59.7176 76.7028 59.7176 76.6697 59.7176C76.7028 59.7176 76.7358 59.7507 76.7688 59.7838C76.8018 59.8169 76.8349 59.85 76.8679 59.8831C76.8019 59.7838 76.8019 59.7838 76.8349 59.85C76.8679 59.9823 76.8019 59.7507 76.8019 59.7507C76.7358 59.5853 76.8019 59.8831 76.8019 59.7176C76.7688 59.5853 76.7688 59.4199 76.7688 59.2875C76.7688 59.089 76.7358 59.3868 76.7688 59.2214C76.7688 59.1552 76.8019 59.056 76.8019 58.9898C76.8349 58.7913 76.9009 58.5928 76.967 58.4274C77.4624 56.9386 78.3872 55.6483 79.5763 54.6889C80.7983 53.6302 78.7175 52.2076 77.7267 52.9686Z" fill="#1A1A1A"/>
<path d="M105.702 25.2445C108.245 21.7707 110.756 18.2969 113.299 14.8231C112.539 14.4261 111.78 14.0291 111.02 13.6321C107.189 20.0503 103.555 26.5678 100.087 33.1846C96.6523 39.8013 93.3825 46.4842 90.3438 53.2995C88.6924 56.9718 86.7767 61.008 87.5694 65.1765C87.6685 65.6397 87.9658 65.9705 88.4282 66.169C88.8245 66.3344 89.4851 66.4006 89.8154 66.0698C94.1091 61.9012 98.1056 57.4349 101.739 52.704C100.979 52.307 100.219 51.9099 99.4598 51.5129C98.6671 53.134 97.8744 54.8875 97.9735 56.7402C98.0726 58.7252 99.4598 60.2801 101.309 60.8756C103.027 61.405 104.91 61.0741 106.561 60.5117C108.378 59.8831 110.161 58.9237 111.813 57.9312C113.728 56.7732 115.545 55.4168 117.229 53.9281C116.536 53.4649 115.842 53.0017 115.148 52.5385C113.398 54.5236 112.407 57.0379 112.143 59.6846C112.11 60.0816 112.539 60.4455 112.836 60.611C113.233 60.8095 113.695 60.8425 114.125 60.7102C117.493 59.5854 120.631 57.7988 123.307 55.483C122.679 54.9536 122.051 54.4243 121.424 53.895C120.037 55.1521 120.565 57.2695 121.952 58.3282C123.736 59.6515 126.048 59.3207 128.096 59.1884C132.455 58.8906 136.848 58.5598 141.208 58.1628C143.586 57.9312 145.931 57.3357 148.21 56.7071C148.64 56.6078 148.243 56.1116 147.979 56.1116C145.997 56.0123 144.016 56.0123 142.034 56.0454C140.019 56.0785 137.971 56.3762 135.99 56.5417C134.041 56.7071 132.059 56.8725 130.077 57.0048C129.087 57.071 128.096 57.1372 127.138 57.2033C126.675 57.2364 126.18 57.2695 125.718 57.3026C125.453 57.3026 125.123 57.3357 124.694 57.3026C124.595 57.3026 124.529 57.3026 124.43 57.2695C124.396 57.2695 124.033 57.2033 124.264 57.2364C124.165 57.2033 124.066 57.1703 123.934 57.1372C123.868 57.1041 123.67 57.0379 123.835 57.1041C123.868 57.1041 123.472 56.9056 123.637 57.0048C123.769 57.071 123.538 56.9056 123.505 56.9056C123.274 56.7071 123.571 57.0048 123.472 56.8725C123.406 56.8063 123.373 56.7402 123.307 56.674C123.406 56.8394 123.307 56.6409 123.274 56.6078C123.24 56.5086 123.207 56.4093 123.174 56.3101C123.108 56.1447 123.174 56.4424 123.174 56.277C123.174 56.1777 123.141 56.0785 123.141 55.9792C123.141 55.9462 123.174 55.7477 123.141 55.88C123.141 55.9792 123.207 55.7146 123.207 55.6815C123.24 55.5161 123.141 55.7807 123.207 55.6484C123.24 55.6153 123.439 55.3837 123.307 55.5161C124.43 54.4905 122.349 53.101 121.424 53.9281C118.881 56.1447 115.974 57.8319 112.77 58.8906C113.431 59.2214 114.092 59.5854 114.752 59.9162C114.95 57.6334 115.974 55.483 117.46 53.7957C117.857 53.3656 117.427 52.704 117.064 52.4724C116.635 52.1746 115.842 52.0092 115.38 52.4062C112.737 54.7882 109.765 56.7402 106.561 58.1958C105.9 58.4936 105.207 58.7583 104.513 58.9568C104.678 58.9237 104.447 58.9568 104.414 58.9899C104.348 59.0229 104.249 59.0229 104.183 59.056C104.018 59.0891 103.82 59.1222 103.654 59.1553C103.489 59.1884 103.291 59.1884 103.126 59.2214C103.093 59.2214 102.862 59.2214 102.994 59.2214C103.126 59.2214 102.796 59.2214 102.763 59.2214C102.598 59.2214 102.432 59.1884 102.267 59.1884C102.003 59.1553 102.234 59.1884 102.3 59.1884C102.201 59.1553 102.135 59.1553 102.036 59.1222C101.97 59.0891 101.904 59.056 101.838 59.056C101.64 59.0229 102.102 59.1884 101.805 59.056C101.739 59.0229 101.673 58.9899 101.607 58.9568C101.541 58.9237 101.309 58.7252 101.508 58.9237C101.408 58.8244 101.276 58.7583 101.177 58.6259C101.342 58.7583 101.144 58.5929 101.111 58.5598C101.045 58.4936 100.979 58.3943 100.946 58.3282C100.88 58.2289 100.682 57.7658 100.682 57.6665C100.319 56.0785 101.111 54.2589 101.805 52.8694C102.432 51.6122 100.319 50.6528 99.5258 51.6784C95.9918 56.277 92.1274 60.611 87.9988 64.6803C88.7254 64.978 89.4851 65.2758 90.2117 65.5735C89.5512 62.0336 91.0044 58.5929 92.4247 55.3837C93.9109 52.0092 95.4633 48.6677 97.0817 45.3594C100.252 38.7426 103.621 32.2582 107.189 25.84C109.203 22.2008 111.284 18.5947 113.398 15.0547C114.125 13.8306 111.879 12.8381 111.119 13.8637C108.576 17.3375 106.066 20.8113 103.522 24.2851C102.598 25.1783 104.943 26.2701 105.702 25.2445Z" fill="#1A1A1A"/>
<path d="M177.375 26.4023C178.663 23.127 179.918 19.8848 181.206 16.6095C181.636 15.5178 179.324 14.6576 178.828 15.6501C175.492 22.0352 172.189 28.4535 168.919 34.8717C165.65 41.2899 162.446 47.7413 159.242 54.2257C156.071 60.677 152.934 67.1614 149.829 73.6789C146.724 80.1964 143.652 86.7139 140.647 93.2644C139.161 96.4735 137.641 99.6496 136.254 102.859C135.032 105.737 134.008 108.946 134.801 112.089C135.032 112.949 135.527 113.512 136.155 114.107C136.518 114.438 137.641 114.471 137.542 113.743C137.509 113.412 137.542 113.082 137.509 112.751C137.476 112.387 137.311 112.056 137.245 111.692C137.08 110.964 137.08 110.236 137.113 109.509C137.212 108.02 137.641 106.531 138.17 105.141C138.731 103.62 139.425 102.131 140.118 100.642C140.845 99.021 141.605 97.3999 142.331 95.7788C145.304 89.3275 148.31 82.8761 151.381 76.4579C154.42 70.0728 157.492 63.6876 160.629 57.3025C163.767 50.9173 166.938 44.5652 170.142 38.2132C173.345 31.8611 176.615 25.5421 179.885 19.2231C180.281 18.4291 180.711 17.6351 181.107 16.8742C180.314 16.5433 179.522 16.2456 178.729 15.9148C177.441 19.19 176.186 22.4322 174.898 25.7075C174.666 26.303 175.393 26.8655 175.889 27.0309C176.45 27.1632 177.144 26.9978 177.375 26.4023Z" fill="#1A1A1A"/>
<path d="M217.24 12.474C218.132 11.7131 219.024 10.9521 219.916 10.1912C219.288 9.66187 218.661 9.13253 218.033 8.60319C213.772 12.4078 209.479 16.1463 205.119 19.7855C200.759 23.4247 196.333 27.0308 191.841 30.5046C187.349 34.0115 182.791 37.4191 178.2 40.7605C173.576 44.102 168.886 47.3773 164.13 50.5864C159.407 53.7624 154.618 56.8392 149.796 59.8498C149.201 60.2138 148.607 60.5777 148.012 60.9747C147.583 61.2393 147.616 61.8349 147.88 62.1988C148.21 62.6289 148.838 62.8935 149.366 62.7943C152.306 62.2649 155.113 63.092 157.756 64.3492C160.497 65.6726 163.073 67.3598 165.616 68.9809C170.571 72.157 175.459 75.4323 180.347 78.7075C185.235 81.9497 190.157 85.1589 195.243 88.1695C200.23 91.1139 205.35 93.8599 210.668 96.1757C213.376 97.3337 216.117 98.4254 218.925 99.3187C220.312 99.7488 221.699 100.146 223.086 100.51C223.813 100.708 224.54 100.841 225.299 100.94C226.026 101.006 226.72 101.138 227.446 101.238C228.14 101.337 228.866 101.37 229.56 101.502C229.791 101.535 230.122 101.535 230.188 101.271C230.254 101.039 230.022 100.774 229.791 100.741C229.065 100.609 228.371 100.344 227.644 100.146C226.918 99.9473 226.224 99.7488 225.531 99.4841C224.176 98.9548 222.789 98.6239 221.402 98.1608C218.694 97.3006 215.919 96.275 213.409 95.2163C208.025 92.9997 202.873 90.2868 197.819 87.3755C192.733 84.431 187.746 81.2219 182.824 77.9466C177.87 74.6713 172.949 71.3299 167.961 68.1208C165.418 66.4666 162.875 64.8124 160.2 63.3898C157.359 61.901 154.221 60.6438 150.985 60.6438C150.192 60.6438 149.366 60.71 148.574 60.8423C149.036 61.4379 149.465 62.0334 149.928 62.6289C154.783 59.6513 159.572 56.5745 164.295 53.3985C169.018 50.2556 173.708 47.0134 178.332 43.6719C182.956 40.3635 187.514 36.9559 192.006 33.4821C196.531 29.9753 200.99 26.4022 205.383 22.763C209.776 19.1238 214.07 15.4184 218.33 11.6469C218.859 11.1837 219.387 10.7205 219.916 10.2243C221.039 9.1987 218.991 7.80918 218.033 8.63627C217.141 9.3972 216.249 10.1581 215.358 10.9191C214.202 11.8785 216.282 13.3011 217.24 12.474Z" fill="#1A1A1A"/>
<path d="M186.623 55.1521C187.68 54.6228 188.572 53.8619 189.1 52.7701C189.728 51.4799 187.614 50.5866 186.821 51.5791C184.41 54.5566 182.627 57.9973 181.537 61.6365C181.272 62.4967 182.461 63.1915 183.188 62.993C185.665 62.3644 187.779 60.9749 189.728 59.3538C191.842 57.6003 193.889 55.7807 195.937 53.9942C197.159 52.9355 198.381 51.8769 199.636 50.8182C198.91 50.4212 198.183 50.0573 197.423 49.6603C196.796 51.1159 196.168 52.6047 195.574 54.0604C195.277 54.7551 194.979 55.483 194.682 56.1777C194.385 56.8725 194.154 57.6665 194.286 58.4274C194.814 61.1403 198.381 61.5373 200.462 60.4786C201.618 59.8831 202.642 58.9568 203.864 58.5267C205.086 58.1297 206.473 58.4274 207.761 58.659C210.833 59.1884 213.905 59.2214 216.976 58.8906C217.835 58.7914 218.661 58.659 219.52 58.5267C220.378 58.3944 221.303 58.2951 222.162 57.9973C222.525 57.865 222.889 57.7327 223.252 57.5673C223.648 57.4349 224.078 57.3357 224.474 57.2033C225.3 56.9718 226.125 56.7732 226.918 56.4424C227.149 56.3432 227.215 56.1447 227.116 55.9131C226.984 55.6815 226.72 55.5822 226.456 55.6153C224.969 55.7146 223.549 56.0785 222.063 56.1447C220.61 56.2108 219.189 56.5086 217.736 56.7071C214.929 57.071 212.154 57.2033 209.314 56.8394C207.927 56.674 206.605 56.3101 205.218 56.2439C203.699 56.1777 202.378 56.5086 201.057 57.2695C200.528 57.5673 200.033 57.9312 199.504 58.262C199.273 58.3943 199.108 58.5267 198.877 58.6259C198.778 58.6921 198.646 58.7252 198.546 58.7583C198.48 58.7914 198.117 58.8906 198.348 58.8244C198.249 58.8575 198.15 58.8575 198.051 58.8906C198.018 58.8906 197.655 58.9237 197.82 58.9237C197.952 58.9237 197.622 58.9237 197.589 58.9237C197.556 58.9237 197.49 58.8906 197.423 58.9237C197.258 58.9568 197.622 58.9899 197.456 58.9237C197.357 58.8906 197.225 58.8575 197.126 58.8244C197.324 58.8575 197.258 58.8906 197.093 58.7914C196.961 58.7252 196.928 58.6259 197.06 58.7583C197.027 58.7252 196.961 58.659 196.928 58.6259C196.994 58.6921 197.027 58.7583 196.961 58.659C196.928 58.6259 196.895 58.5928 196.895 58.5598C196.829 58.4605 196.928 58.7583 196.895 58.5267C196.862 58.4274 196.862 58.3943 196.829 58.2289C196.796 57.8981 196.928 57.5673 197.027 57.2364C197.291 56.4755 197.655 55.7477 197.952 54.9867C198.613 53.4318 199.273 51.8438 199.934 50.2888C200.132 49.8257 199.636 49.2963 199.273 49.0978C198.844 48.8663 198.15 48.767 197.721 49.1309C195.64 50.9174 193.559 52.737 191.478 54.5236C189.596 56.1777 187.746 57.9312 185.632 59.3207C184.641 59.9824 183.452 60.611 182.362 60.8756C182.924 61.3388 183.452 61.802 184.014 62.2321C185.071 58.7252 186.788 55.483 189.067 52.6709C188.308 52.2739 187.548 51.8769 186.788 51.4799C186.425 52.2077 185.863 52.8694 185.203 53.2002C183.75 54.0273 185.467 55.7146 186.623 55.1521Z" fill="#1A1A1A"/>
<path d="M240.492 53.2333C236.694 53.8289 232.962 54.9868 229.527 56.7402C230.055 57.3026 230.617 57.8981 231.145 58.4606C235.208 56.244 239.634 54.3251 244.126 53.2333C244.621 53.101 245.149 53.0018 245.645 53.0018C245.843 53.0018 246.041 53.0018 246.206 53.0348C246.338 53.0679 246.504 53.101 246.636 53.1672C246.768 53.2003 246.537 53.101 246.735 53.2333C246.999 53.3988 246.867 53.2664 247.098 53.4649C247.164 53.5311 247.395 53.7296 247.362 53.6965C247.627 53.9612 247.858 54.292 247.99 54.5898C248.783 56.1116 248.915 57.8651 248.981 59.5523C249.344 67.5255 248.089 75.5318 245.48 83.0748C242.87 90.5848 238.94 97.6317 233.821 103.719C228.569 110.005 221.996 115.464 214.499 118.838C210.601 120.592 206.44 121.75 202.179 121.981C201.221 122.047 200.23 122.014 199.306 121.816C198.843 121.717 198.414 121.584 197.984 121.353C197.522 121.121 197.39 121.022 197.027 120.691C196.036 119.798 195.375 118.375 195.144 116.919C194.549 113.28 195.639 109.707 196.894 106.366C198.315 102.528 200.263 98.9219 202.542 95.5474C207.265 88.5998 213.277 82.744 219.949 77.6491C226.852 72.3557 234.316 67.9556 242.243 64.3825C246.206 62.596 250.269 61.0411 254.397 59.7177C256.445 59.0561 258.493 58.5267 260.574 57.9312C262.655 57.3688 264.702 56.7402 266.816 56.3101C275.503 54.4905 284.619 53.101 293.437 54.9206C295.617 55.3838 297.83 56.0124 299.845 56.9387C299.944 57.0049 300.076 56.8725 299.944 56.8064C295.683 54.8544 291.225 53.7627 286.567 53.3988C284.189 53.2333 281.811 53.2003 279.433 53.2995C277.088 53.3988 274.71 53.5642 272.398 53.7958C270.185 54.0274 267.972 54.3913 265.759 54.7883C263.513 55.1853 261.234 55.5492 259.055 56.1116C254.695 57.2696 250.368 58.6591 246.173 60.3133C237.784 63.6216 229.758 67.9887 222.393 73.2159C218.793 75.7633 215.324 78.5424 212.055 81.553C208.818 84.5305 205.746 87.6404 203.005 91.048C200.296 94.4225 197.951 98.0287 196.036 101.899C194.285 105.506 192.733 109.409 192.469 113.446C192.237 117.085 193.261 120.989 196.663 122.875C198.81 124.066 201.32 124.099 203.698 123.9C205.944 123.735 208.157 123.305 210.337 122.676C218.892 120.294 226.455 114.968 232.632 108.715C238.511 102.76 243.135 95.6797 246.372 87.9712C249.608 80.2958 251.425 71.9918 251.59 63.6216C251.623 61.6366 251.656 59.5854 251.392 57.6004C251.161 55.8139 250.632 53.9281 249.344 52.5717C247.627 50.7521 245.149 50.719 242.87 51.3145C240.492 51.9431 238.147 52.7371 235.868 53.6634C233.622 54.5898 231.409 55.6485 229.296 56.8395C228.8 57.1041 228.932 57.832 229.263 58.1628C229.626 58.5598 230.386 58.8245 230.914 58.5598C234.184 56.9056 237.652 55.7477 241.252 55.1522C241.814 55.0529 242.276 54.5898 242.045 53.9943C241.847 53.4649 241.087 53.1341 240.492 53.2333Z" fill="#1A1A1A"/>
<path d="M192.601 39.9997C192.006 40.4628 191.445 41.0253 190.916 41.5877C190.652 41.8854 190.355 42.2163 190.256 42.6133C190.157 43.0103 190.025 43.4404 190.19 43.8374C190.322 44.1682 190.784 44.3998 191.148 44.3336C191.379 44.2675 191.544 44.2013 191.742 44.102C191.841 44.0359 191.94 43.9697 192.072 43.8705C192.171 43.8043 192.27 43.7381 192.403 43.672C192.568 43.5727 192.7 43.4073 192.832 43.2419C193.129 42.8449 193.46 42.4809 193.823 42.117C193.757 42.1832 193.691 42.2494 193.625 42.3155C193.889 42.0509 194.186 41.7862 194.483 41.5215C194.682 41.3561 194.847 41.1245 194.814 40.8268C194.814 40.5621 194.616 40.2643 194.417 40.0989C193.889 39.8012 193.096 39.6027 192.601 39.9997Z" fill="#1A1A1A"/>
<path d="M88.1002 91.4074C87.6209 91.6401 86.8816 91.7907 86.1559 91.7907C83.9105 91.7907 82.6098 90.3394 82.6098 88.0803C82.6098 85.6568 84.0474 84.274 86.2107 84.274C86.9774 84.274 87.6209 84.4383 88.0728 84.6573L88.3603 83.6852C88.0454 83.5209 87.3197 83.2745 86.1696 83.2745C83.308 83.2745 81.3501 85.2324 81.3501 88.1213C81.3501 91.1472 83.308 92.7902 85.9095 92.7902C87.0322 92.7902 87.9085 92.5712 88.3466 92.3521L88.1002 91.4074ZM99.6845 87.3409H96.0972V84.4246H99.8898V83.4251H94.906V92.6533H100.095V91.6538H96.0972V88.3267H99.6845V87.3409ZM110.449 83.2745C107.984 83.2745 106.163 85.1913 106.163 88.1213C106.163 90.9145 107.875 92.8039 110.312 92.8039C112.667 92.8039 114.597 91.1198 114.597 87.9434C114.597 85.205 112.968 83.2745 110.449 83.2745ZM110.394 84.2466C112.379 84.2466 113.338 86.1634 113.338 87.9981C113.338 90.093 112.27 91.8318 110.38 91.8318C108.505 91.8318 107.437 90.0656 107.437 88.094C107.437 86.0676 108.422 84.2466 110.394 84.2466Z" fill="#1A1A1A"/>
</g>
<defs>
<clipPath id="clip0">
<rect width="300" height="124" fill="white"/>
</clipPath>
</defs>
</svg>
