<svg width="402" height="433" viewBox="0 0 402 433" fill="none" xmlns="http://www.w3.org/2000/svg">
<path fill-rule="evenodd" clip-rule="evenodd" d="M212.116 18.504C259.158 8.73899 312.304 -15.9341 351.916 15.3027C391.573 46.5744 399.929 112.302 401.929 168.183C403.606 215.039 375.152 252.941 362.008 297.248C349.243 340.279 358.588 398.616 326.111 423.764C293.534 448.988 251.169 414.704 212.116 413.311C174.863 411.982 136.217 435.715 103.064 415.808C68.2078 394.879 51.8918 349.037 35.6418 307.347C17.3597 260.442 -10.1361 210.057 3.80732 161.157C17.7381 112.301 66.2522 92.7375 104.257 66.7112C138.303 43.3959 173.268 26.568 212.116 18.504Z" fill="#0080FF"/>
</svg>
